<svg width="144" xmlns="http://www.w3.org/2000/svg" height="144" id="screenshot-ce4a510e-5a55-8007-8007-8fe16189b439" viewBox="0 0 144 144" xmlns:xlink="http://www.w3.org/1999/xlink" fill="none" version="1.1"><g id="shape-ce4a510e-5a55-8007-8007-8fe16189b439"><defs><clipPath id="frame-clip-ce4a510e-5a55-8007-8007-8fe16189b439-render-1" class="frame-clip frame-clip-def"><rect rx="0" ry="0" x="0" y="0" width="144" height="144" transform="matrix(1.000000, 0.000000, 0.000000, 1.000000, 0.000000, 0.000000)"/></clipPath></defs><g class="frame-container-wrapper"><g class="frame-container-blur"><g class="frame-container-shadows"><g clip-path="url(#frame-clip-ce4a510e-5a55-8007-8007-8fe16189b439-render-1)" fill="none"><g class="fills" id="fills-ce4a510e-5a55-8007-8007-8fe16189b439"><rect width="144" height="144" class="frame-background" x="0" transform="matrix(1.000000, 0.000000, 0.000000, 1.000000, 0.000000, 0.000000)" style="fill: rgb(43, 43, 43); fill-opacity: 1;" ry="0" rx="0" y="0"/></g><g class="frame-children"><g id="shape-ce4a510e-5a55-8007-8007-8fe1c180b633"><g class="fills" id="fills-ce4a510e-5a55-8007-8007-8fe1c180b633"><rect rx="0" ry="0" x="123" y="16" transform="matrix(1.000000, 0.000000, 0.000000, 1.000000, 0.000000, 0.000000)" width="12" height="113" style="fill: rgb(101, 203, 21); fill-opacity: 1;"/></g></g><g id="shape-ce4a510e-5a55-8007-8007-8fe1de2d616d"><g class="fills" id="fills-ce4a510e-5a55-8007-8007-8fe1de2d616d"><rect rx="0" ry="0" x="60" y="16.000000000000057" transform="matrix(1.000000, 0.000000, 0.000000, 1.000000, 0.000000, 0.000000)" width="12" height="113" style="fill: rgb(101, 203, 21); fill-opacity: 1;"/></g></g><g id="shape-ce4a510e-5a55-8007-8007-8fe55c70f769"><g class="fills" id="fills-ce4a510e-5a55-8007-8007-8fe55c70f769"><rect rx="0" ry="0" x="8" y="16" transform="matrix(1.000000, 0.000000, 0.000000, 1.000000, 0.000000, 0.000000)" width="39" height="113" style="fill: rgb(101, 203, 21); fill-opacity: 1;"/></g></g><g id="shape-ce4a510e-5a55-8007-8007-8fe599b50a00"><g class="fills" id="fills-ce4a510e-5a55-8007-8007-8fe599b50a00"><rect rx="0" ry="0" x="21" y="85" transform="matrix(1.000000, 0.000000, 0.000000, 1.000000, 0.000000, 0.000000)" width="14" height="48.00000000000006" style="fill: rgb(43, 43, 43); fill-opacity: 1;"/></g></g><g id="shape-ce4a510e-5a55-8007-8007-8fe1e3beddfd"><g class="fills" id="fills-ce4a510e-5a55-8007-8007-8fe1e3beddfd"><rect rx="0" ry="0" x="96" y="16" transform="matrix(1.000000, 0.000000, 0.000000, 1.000000, 0.000000, 0.000000)" width="12" height="112" style="fill: rgb(101, 203, 21); fill-opacity: 1;"/></g></g><g id="shape-ce4a510e-5a55-8007-8007-8fe26381bd7e"><g class="fills" id="fills-ce4a510e-5a55-8007-8007-8fe26381bd7e"><path d="M72,16L108,128L96,128L60,16L72,16" style="fill: rgb(159, 213, 116); fill-opacity: 1;"/></g></g><g id="shape-ce4a510e-5a55-8007-8007-8fe586fe42c1"><g class="fills" id="fills-ce4a510e-5a55-8007-8007-8fe586fe42c1"><path d="M21,24L35,24L35,72L32,68L21,68L21,24" style="fill: rgb(43, 43, 43); fill-opacity: 1;"/></g></g></g></g></g></g></g></g></svg>